<svg width="230" height="60" xmlns="http://www.w3.org/2000/svg">
 <metadata id="metadata8">image/svg+xml</metadata>
 <defs>
  <clipPath id="clipPath46" clipPathUnits="userSpaceOnUse">
   <path id="path44" d="m1246.67492,984.93762l-212.225,411.32l-216.598,-411.13c42.09,19.17 122.219,32.11 214.199,32.11c92.294,0 172.654,-13.03 214.624,-32.3z"/>
  </clipPath>
  <clipPath id="clipPath74" clipPathUnits="userSpaceOnUse">
   <path id="path72" d="m1174.96492,699.71462l-141.25,273.743l-144.148,-273.618c28.011,12.754 81.336,21.375 142.558,21.375c61.42,0 114.9,-8.68 142.84,-21.5z"/>
  </clipPath>
  <clipPath id="clipPath94" clipPathUnits="userSpaceOnUse">
   <path id="path92" d="m1138.05492,411.44462l-104.715,202.942l-106.863,-202.852c20.766,9.465 60.297,15.852 105.683,15.852c45.535,0 85.185,-6.438 105.895,-15.942z"/>
  </clipPath>
  <linearGradient id="linearGradient52" spreadMethod="pad" y2="-0.12629" x2="0.5" y1="0.87579" x1="0.5">
   <stop stop-color="#abaaaa" id="stop48" offset="0"/>
   <stop stop-color="#ffffff" id="stop50" offset="1"/>
  </linearGradient>
  <linearGradient id="linearGradient80" spreadMethod="pad" y2="-0.12629" x2="0.5" y1="0.8758" x1="0.5">
   <stop stop-color="#abaaaa" id="stop76" offset="0"/>
   <stop stop-color="#ffffff" id="stop78" offset="1"/>
  </linearGradient>
  <linearGradient id="linearGradient100" spreadMethod="pad" y2="-0.12629" x2="0.5" y1="0.87579" x1="0.5">
   <stop stop-color="#abaaaa" id="stop96" offset="0"/>
   <stop stop-color="#ffffff" id="stop98" offset="1"/>
  </linearGradient>
 </defs>
 <g>
  <title>background</title>
  <rect fill="none" id="canvas_background" height="62" width="232" y="-1" x="-1"/>
 </g>
 <g>
  <title>Layer 1</title>
  <g transform="matrix(0.36327361152362825,0,0,-0.36327361152362825,-0.7275852875011424,52.26193084564481) " id="g10">
   <g transform="translate(0,0.75) scale(0.10000000149011612) " id="g12">
    <path fill="#283f89" fill-rule="nonzero" id="path14" d="m2800.91492,562.38662l0,328.679l-306.47,0l0,-328.679l-189.87,0l0,786.161l189.87,0l0,-297.59l306.47,0l0,297.59l189.89,0l0,-786.161l-189.89,0"/>
    <path fill="#283f89" fill-rule="nonzero" id="path16" d="m3130.70492,562.38662l0,786.161l190.99,0l0,-786.161l-190.99,0"/>
    <path fill="#283f89" fill-rule="nonzero" id="path18" d="m4025.12492,561.26962c-51.46,-12.579 -107.54,-18.875 -168.22,-18.875c-62.93,0 -120.86,9.992 -173.78,29.992c-52.94,19.976 -98.47,48.101 -136.58,84.383c-38.14,36.253 -67.93,79.761 -89.39,130.468c-21.48,50.696 -32.2,107.153 -32.2,169.34c0,62.91 10.91,119.92 32.75,171c21.83,51.08 52,94.57 90.51,130.48c38.48,35.9 83.64,63.47 135.47,82.72c51.8,19.24 107.7,28.88 167.67,28.88c62.17,0 119.92,-9.44 173.23,-28.32c53.3,-18.87 96.59,-44.24 129.92,-76.06l-119.93,-136.58c-18.52,21.45 -42.94,39.03 -73.29,52.74c-30.37,13.69 -64.79,20.54 -103.27,20.54c-33.31,0 -64.04,-6.11 -92.16,-18.31c-28.15,-12.22 -52.57,-29.27 -73.3,-51.08c-20.73,-21.86 -36.83,-47.76 -48.3,-77.73c-11.48,-29.99 -17.2,-62.75 -17.2,-98.28c0,-36.28 5.16,-69.594 15.53,-99.941c10.36,-30.36 25.72,-56.449 46.09,-78.281c20.35,-21.84 45.52,-38.864 75.52,-51.079c29.97,-12.218 64.19,-18.316 102.7,-18.316c22.22,0 43.31,1.656 63.3,4.992c19.98,3.328 38.48,8.695 55.52,16.102l0,143.242l-149.91,0l0,153.241l324.23,0l0,-416.409c-38.48,-19.988 -83.46,-36.281 -134.91,-48.859"/>
    <path fill="#283f89" fill-rule="nonzero" id="path20" d="m4789.64492,562.38662l0,328.679l-306.46,0l0,-328.679l-189.87,0l0,786.161l189.87,0l0,-297.59l306.46,0l0,297.59l189.9,0l0,-786.161l-189.9,0"/>
    <path fill="#283f89" fill-rule="nonzero" id="path22" d="m5352.61492,562.38662l0,577.411l-146.57,-113.26l-96.61,132.14l258.64,189.87l169.98,0l0,-786.161l-185.44,0"/>
    <path fill="#283f89" fill-rule="nonzero" id="path24" d="m6075.47492,957.68762c0,24.43 -1.49,51.44 -4.43,81.07c-2.97,29.59 -8.52,57.18 -16.66,82.72c-8.15,25.54 -19.8,46.99 -34.98,64.4c-15.18,17.39 -34.97,26.09 -59.39,26.09c-24.44,0 -44.43,-8.7 -59.98,-26.09c-15.54,-17.41 -27.57,-38.86 -36.09,-64.4c-8.51,-25.54 -14.25,-53.13 -17.21,-82.72c-2.96,-29.63 -4.44,-56.64 -4.44,-81.07c0,-25.18 1.48,-52.75 4.44,-82.719c2.96,-29.988 8.7,-57.746 17.21,-83.285c8.52,-25.539 20.55,-47.02 36.09,-64.407c15.55,-17.406 35.54,-26.097 59.98,-26.097c24.42,0 44.21,8.691 59.39,26.097c15.18,17.387 26.83,38.868 34.98,64.407c8.14,25.539 13.69,53.297 16.66,83.285c2.94,29.969 4.43,57.539 4.43,82.719zm191,0c0,-55.512 -5.55,-108.461 -16.66,-158.786c-11.09,-50.355 -28.87,-94.574 -53.29,-132.687c-24.43,-38.149 -56.08,-68.488 -94.94,-91.067c-38.87,-22.566 -86.06,-33.855 -141.57,-33.855c-55.53,0 -102.91,11.289 -142.14,33.855c-39.25,22.579 -71.26,52.918 -96.06,91.067c-24.8,38.113 -42.75,82.332 -53.86,132.687c-11.09,50.325 -16.65,103.274 -16.65,158.786c0,55.53 5.56,108.26 16.65,158.24c11.11,49.97 29.06,93.64 53.86,131.02c24.8,37.37 56.81,67.18 96.06,89.4c39.23,22.2 86.61,33.31 142.14,33.31c55.51,0 102.7,-11.11 141.57,-33.31c38.86,-22.22 70.51,-52.03 94.94,-89.4c24.42,-37.38 42.2,-81.05 53.29,-131.02c11.11,-49.98 16.66,-102.71 16.66,-158.24"/>
    <path fill="#656263" fill-rule="nonzero" id="path26" d="m2363.88492,268.52662l0,-304.4098l90.11,0c97.25,0 159.34,65.9418 159.34,151.1098l0,1.089c0,85.184 -62.09,152.211 -159.34,152.211l-90.11,0zm-43.41,40.11l133.52,0c120.88,0 204.4,-82.969 204.4,-191.207l0,-1.114c0,-108.2261 -83.52,-192.29644 -204.4,-192.29644l-133.52,0l0,384.61744"/>
    <path fill="#656263" fill-rule="nonzero" id="path28" d="m3045.33492,308.63662l43.41,0l0,-384.61744l-43.41,0l0,384.61744"/>
    <path fill="#656263" fill-rule="nonzero" id="path30" d="m3475.61492,115.22662l0,1.089c0,105.5 77.48,198.911 192.86,198.911c64.85,0 104.95,-18.68 143.41,-51.098l-28.02,-32.961c-29.67,25.82 -62.63,43.949 -117.03,43.949c-85.17,0 -146.16,-71.98 -146.16,-157.687l0,-1.114c0,-91.757 58.79,-159.8785 152.21,-159.8785c43.95,0 84.61,17.0313 110.98,38.461l0,95.6015l-117.03,0l0,39.008l158.79,0l0,-153.3009c-35.71,-31.8672 -89.56,-58.7891 -154.4,-58.7891c-120.87,0 -195.61,87.9219 -195.61,197.809"/>
    <path fill="#656263" fill-rule="nonzero" id="path32" d="m4218.61492,308.63662l43.41,0l0,-384.61744l-43.41,0l0,384.61744"/>
    <path fill="#656263" fill-rule="nonzero" id="path34" d="m4767.58492,268.52662l-129.12,0l0,40.11l302.2,0l0,-40.11l-129.11,0l0,-344.50744l-43.97,0l0,344.50744"/>
    <path fill="#656263" fill-rule="nonzero" id="path36" d="m5513.30492,65.22662l-87.37,195.601l-87.91,-195.601l175.28,0zm-107.15,246.152l40.66,0l175.28,-387.35944l-46.7,0l-45.07,101.64844l-209.34,0l-45.59,-101.64844l-44.53,0l175.29,387.35944"/>
    <path fill="#656263" fill-rule="nonzero" id="path38" d="m5989.23492,308.63662l43.41,0l0,-344.5198l216.5,0l0,-40.09764l-259.91,0l0,384.61744"/>
    <g id="g40">
     <g clip-path="url(#clipPath46)" id="g42">
      <path fill="url(#linearGradient52)" fill-rule="nonzero" id="path54" d="m1246.67492,984.93762l-212.225,411.32l-216.598,-411.13c42.09,19.17 122.219,32.11 214.199,32.11c92.294,0 172.654,-13.03 214.624,-32.3"/>
     </g>
    </g>
    <path fill="#4ac1a3" fill-rule="nonzero" id="path56" d="m1214.50492,1013.91762l-180.384,345.16l-184.097,-345c35.773,16.07 103.879,26.95 182.062,26.95c78.439,0 146.739,-10.94 182.419,-27.11"/>
    <path fill="none" stroke="#ffffff" stroke-width="2.5" stroke-miterlimit="10" id="path58" d="m1214.50492,1013.91762l-180.384,345.16l-184.097,-345c35.773,16.07 103.879,26.95 182.062,26.95c78.439,0 146.739,-10.94 182.419,-27.11z"/>
    <path fill="#283f89" fill-rule="nonzero" id="path60" d="m1751.06492,507.02262l-7.46,9.649c2.82,-3.731 5.04,-7.117 6.75,-10.203l0.71,0.554"/>
    <path fill="#283f89" fill-rule="nonzero" id="path62" d="m1577.39492,801.83162c-36.53,-28.23 -6.89,-61.195 -6.89,-61.195l171.39,-221.746c0.59,-0.754 1.16,-1.489 1.71,-2.219l7.46,-9.649l-0.71,-0.554c15.2,-27.453 -10.19,-30.16 -10.19,-30.16c-7.42,-4.598 -15.24,-0.45 -21.64,5.558l-1.38,-1.062l-232.73,301.148c0,0 -32.22,30.875 -71.31,8.645c-28.41,-16.153 -26.77,-40.215 -18.59,-59.684l203.94,-263.871c31.15,-37.102 -1.89,-42.246 -1.89,-42.246c-16.54,-10.52 -32.74,20.012 -32.74,20.012l-0.64,0.82l-1.4,-1.086l-224.35,290.27c0,0 -22.68,53.613 -79.01,24.035c-35.41,-18.582 -29.49,-50.149 -20.21,-71.047l234.06,-302.844c35.89,-43.789 5.21,-43.66 5.21,-43.66c-14.04,-8.207 -34.57,26.262 -34.57,26.262l-199.46,258.07c-16.55,13.203 -41.5,23.125 -68.65,-1.25c-47.99,-43.078 19.41,-108.711 19.41,-108.711l250.08,-323.57c0,0 32.44,-52.75 -6.65,-74.989c0,0 -38.45,-25.73 -109.51,-22.769c0,0 -100.39,-15.723 -137.41,-70.281c0,0 -32.69,-87.1293 52.38,-81.2504c0,0 143.28,24.9297 227.54,56.1289c0,0 90.96,14.4219 192.75,-52.5703c0,0 25.5,-22.21092 61.2,-22.55857l283.1,218.82037c0,0 12.71,79.5 -29.78,182.008c0,0 7.7,16.441 -140.32,213.344l-196.01,253.597c0,0 -27.66,38.488 -64.19,10.254"/>
    <path fill="#283f89" fill-rule="nonzero" id="path64" d="m313.46892,507.02262l7.453,9.649c-2.82,-3.731 -5.039,-7.117 -6.742,-10.203l-0.711,0.554"/>
    <path fill="#283f89" fill-rule="nonzero" id="path66" d="m487.14092,801.83162c36.527,-28.23 6.883,-61.195 6.883,-61.195l-171.383,-221.746c-0.598,-0.754 -1.164,-1.489 -1.719,-2.219l-7.453,-9.649l0.711,-0.554c-15.203,-27.453 10.18,-30.16 10.18,-30.16c7.429,-4.598 15.246,-0.45 21.648,5.558l1.375,-1.062l232.727,301.148c0,0 32.23,30.875 71.316,8.645c28.41,-16.153 26.77,-40.215 18.594,-59.684l-203.949,-263.871c-31.145,-37.102 1.898,-42.246 1.898,-42.246c16.543,-10.52 32.734,20.012 32.734,20.012l0.637,0.82l1.406,-1.086l224.348,290.27c0,0 22.684,53.613 79.016,24.035c35.406,-18.582 29.488,-50.149 20.211,-71.047l-234.071,-302.844c-35.882,-43.789 -5.207,-43.66 -5.207,-43.66c14.043,-8.207 34.571,26.262 34.571,26.262l199.457,258.07c16.55,13.203 41.504,23.125 68.66,-1.25c47.984,-43.078 -19.418,-108.711 -19.418,-108.711l-250.082,-323.57c0,0 -32.438,-52.75 6.648,-74.989c0,0 38.465,-25.73 109.52,-22.769c0,0 100.379,-15.723 137.406,-70.281c0,0 32.691,-87.1293 -52.379,-81.2504c0,0 -143.281,24.9297 -227.535,56.1289c0,0 -90.961,14.4219 -192.758,-52.5703c0,0 -25.496,-22.21092 -61.191,-22.55857l-283.10966,218.82037c0,0 -12.69924,79.5 29.78516,182.008c0,0 -7.6953,16.441 140.3205,213.344l196.008,253.597c0,0 27.664,38.488 64.195,10.254"/>
    <g id="g68">
     <g clip-path="url(#clipPath74)" id="g70">
      <path fill="url(#linearGradient80)" fill-rule="nonzero" id="path82" d="m1174.96492,699.71462l-141.25,273.743l-144.148,-273.618c28.011,12.754 81.336,21.375 142.558,21.375c61.42,0 114.9,-8.68 142.84,-21.5"/>
     </g>
    </g>
    <path fill="#4ac1a3" fill-rule="nonzero" id="path84" d="m1153.55492,718.99562l-120.055,229.722l-122.523,-229.616c23.808,10.707 69.137,17.937 121.168,17.937c52.21,0 97.67,-7.281 121.41,-18.043"/>
    <path fill="none" stroke="#ffffff" stroke-width="2.5" stroke-miterlimit="10" id="path86" d="m1153.55492,718.99562l-120.055,229.722l-122.523,-229.616c23.808,10.707 69.137,17.937 121.168,17.937c52.21,0 97.67,-7.281 121.41,-18.043z"/>
    <g id="g88">
     <g clip-path="url(#clipPath94)" id="g90">
      <path fill="url(#linearGradient100)" fill-rule="nonzero" id="path102" d="m1138.05492,411.44462l-104.715,202.942l-106.863,-202.852c20.766,9.465 60.297,15.852 105.683,15.852c45.535,0 85.185,-6.438 105.895,-15.942"/>
     </g>
    </g>
    <path fill="#4ac1a3" fill-rule="nonzero" id="path104" d="m1122.18492,425.74162l-89.005,170.305l-90.832,-170.227c17.652,7.934 51.25,13.293 89.824,13.293c38.703,0 72.413,-5.398 90.013,-13.371"/>
    <path fill="none" stroke="#ffffff" stroke-width="2.5" stroke-miterlimit="10" id="path106" d="m1122.18492,425.74162l-89.005,170.305l-90.832,-170.227c17.652,7.934 51.25,13.293 89.824,13.293c38.703,0 72.413,-5.398 90.013,-13.371z"/>
   </g>
  </g>
 </g>
</svg>